<?xml version="1.0" encoding="utf-8"?>
<!-- Svg Vector Icons : http://www.onlinewebfonts.com/icon -->
<!DOCTYPE svg PUBLIC "-//W3C//DTD SVG 1.1//EN" "http://www.w3.org/Graphics/SVG/1.1/DTD/svg11.dtd">
<svg version="1.1" xmlns="http://www.w3.org/2000/svg" xmlns:xlink="http://www.w3.org/1999/xlink" x="0px" y="0px" viewBox="0 0 1000 1000" enable-background="new 0 0 1000 1000" xml:space="preserve">

<g><g transform="translate(0.000000,511.000000) scale(0.100000,-0.100000)">
    <path fill="#F0F050" d="M4656.9,4990.6c-855.6-97.7-1670.8-505.3-2273.8-1140.1c-541.4-569-868.3-1214.4-1010.6-1999.9c-48.8-273.9-48.8-866.2,2.1-1157.1c167.7-991.5,692.1-2055.1,1619.9-3282.2c571.1-757.9,1600.8-1961.7,1781.2-2082.7c208-140.1,390.6-155,598.7-50.9c138,70.1,233.5,165.6,588.1,592.3c1932,2324.7,2813,4197.2,2689.9,5715.2c-84.9,1036-450.1,1851.3-1110.3,2484c-454.3,433.1-1031.8,728.2-1675.1,857.7C5459.4,5007.6,5015.7,5031,4656.9,4990.6z M5423.3,4589.4c787.6-80.7,1399.1-356.7,1898-857.7c545.6-547.7,853.5-1259,927.8-2150.6c123.1-1460.6-743.1-3244-2713.3-5590c-271.7-322.7-365.1-399.1-462.8-373.6c-76.4,19.1-142.2,87-673,704.8C3247.2-2333.8,2663.4-1510.1,2236.7-629c-248.4,518-380,898.1-456.5,1337.5c-189,1061.5,169.8,2154.9,957.5,2929.8c222.9,218.7,303.6,284.5,528.6,431C3916,4496,4635.7,4667.9,5423.3,4589.4z"/>
    <path fill="#F0F050" d="M4614.5,3198.8c-341.8-67.9-704.9-263.3-957.5-518c-229.3-231.4-371.5-467.1-475.6-787.6c-78.6-242-99.8-692.1-42.5-946.9C3293.9,235,3820.4-317,4525.3-510.2c233.5-63.7,709.1-63.7,942.6,0c923.5,252.7,1509.5,1099.8,1413.9,2044.5c-80.7,819.5-692.1,1494.6-1505.2,1664.5C5196.2,3237,4805.5,3237,4614.5,3198.8z M5349,2784.8c1076.4-271.7,1488.3-1539.2,783.4-2407.5c-184.7-227.2-518-428.9-806.7-490.4C4527.4-283,3710,249.9,3540.2,1046c-67.9,320.6-12.7,700.6,142.2,997.8C3996.6,2634.1,4701.5,2948.3,5349,2784.8z"/></g></g>
</svg>