<svg width="24" height="24" viewBox="0 0 24 24" fill="none" xmlns="http://www.w3.org/2000/svg">
<path d="M11.0454 15.14L6.24935 9.658C5.68335 9.013 6.14335 8 7.00235 8H16.5944C16.7866 7.99984 16.9748 8.05509 17.1365 8.15914C17.2981 8.26319 17.4263 8.41164 17.5058 8.58669C17.5853 8.76175 17.6126 8.956 17.5845 9.14618C17.5564 9.33636 17.474 9.51441 17.3474 9.659L12.5514 15.139C12.4575 15.2464 12.3417 15.3325 12.2119 15.3915C12.082 15.4505 11.941 15.481 11.7984 15.481C11.6557 15.481 11.5147 15.4505 11.3848 15.3915C11.255 15.3325 11.1392 15.2464 11.0454 15.139V15.14Z" fill="#fff"/>
</svg>
