<svg width="24" height="24" viewBox="0 0 24 24" fill="none" xmlns="http://www.w3.org/2000/svg">
<path fill-rule="evenodd" clip-rule="evenodd" d="M6.27116 0.271157C6.35689 0.185204 6.45874 0.11701 6.57087 0.0704803C6.68301 0.0239508 6.80322 0 6.92462 0C7.04602 0 7.16623 0.0239508 7.27836 0.0704803C7.39049 0.11701 7.49234 0.185204 7.57808 0.271157L18.6537 11.3468C18.7397 11.4325 18.8079 11.5344 18.8544 11.6465C18.9009 11.7586 18.9249 11.8788 18.9249 12.0002C18.9249 12.1216 18.9009 12.2419 18.8544 12.354C18.8079 12.4661 18.7397 12.568 18.6537 12.6537L7.57808 23.7293C7.40477 23.9026 7.16971 24 6.92462 24C6.67952 24 6.44447 23.9026 6.27116 23.7293C6.09785 23.556 6.00048 23.321 6.00048 23.0759C6.00048 22.8308 6.09785 22.5957 6.27116 22.4224L16.6952 12.0002L6.27116 1.57808C6.1852 1.49234 6.11701 1.39049 6.07048 1.27836C6.02395 1.16623 6 1.04602 6 0.924619C6 0.803216 6.02395 0.683007 6.07048 0.570875C6.11701 0.458743 6.1852 0.356893 6.27116 0.271157V0.271157Z" fill="#2B2B2B"/>
</svg>
