<svg width="24" height="24" viewBox="0 0 24 24" fill="none" xmlns="http://www.w3.org/2000/svg">
<path fill-rule="evenodd" clip-rule="evenodd" d="M10.6667 5.66667C7.90524 5.66667 5.66667 7.90524 5.66667 10.6667C5.66667 13.4281 7.90524 15.6667 10.6667 15.6667C13.4281 15.6667 15.6667 13.4281 15.6667 10.6667C15.6667 7.90524 13.4281 5.66667 10.6667 5.66667ZM4 10.6667C4 6.98477 6.98477 4 10.6667 4C14.3486 4 17.3333 6.98477 17.3333 10.6667C17.3333 14.3486 14.3486 17.3333 10.6667 17.3333C6.98477 17.3333 4 14.3486 4 10.6667Z" fill="#2B2B2B"/>
<path fill-rule="evenodd" clip-rule="evenodd" d="M18.4107 19.5893L14.2441 15.4226L15.4226 14.2441L19.5893 18.4107L18.4107 19.5893Z" fill="#2B2B2B"/>
</svg>
