<svg width="24" height="24" viewBox="0 0 24 24" fill="none" xmlns="http://www.w3.org/2000/svg">
<path d="M22 5.93004C21.2645 6.24731 20.4641 6.47565 19.6397 6.56458C20.4956 6.05608 21.1366 5.25273 21.4424 4.30526C20.6392 4.78305 19.7593 5.11809 18.8417 5.29551C18.4582 4.88553 17.9944 4.55893 17.4792 4.33604C16.9639 4.11316 16.4083 3.99877 15.8469 4.00001C13.5755 4.00001 11.7488 5.84111 11.7488 8.10043C11.7488 8.4177 11.7873 8.73496 11.8498 9.04021C8.44874 8.86235 5.41546 7.23757 3.39887 4.74991C3.03143 5.37751 2.83887 6.09211 2.84124 6.81935C2.84124 8.24224 3.56472 9.49688 4.66795 10.2348C4.0178 10.2092 3.38287 10.0305 2.81481 9.7132V9.76368C2.81481 11.7562 4.22329 13.4074 6.10047 13.7872C5.74801 13.8787 5.38543 13.9256 5.02127 13.9266C4.75448 13.9266 4.5021 13.9002 4.24733 13.8641C4.76649 15.4889 6.27833 16.669 8.0786 16.7075C6.67011 17.8107 4.9059 18.4596 2.99027 18.4596C2.64656 18.4596 2.32929 18.4476 2 18.4092C3.81709 19.5749 5.97308 20.2479 8.29492 20.2479C15.8325 20.2479 19.957 14.0035 19.957 8.58354C19.957 8.40568 19.957 8.22782 19.945 8.04996C20.7429 7.4659 21.4424 6.74244 22 5.93004Z" fill="#2B2B2B"/>
</svg>
