<svg width="538" height="538" viewBox="0 0 538 538" fill="none" xmlns="http://www.w3.org/2000/svg">
<circle cx="269" cy="269" r="268" stroke="white" stroke-opacity="0.2" stroke-width="2"/>
<path d="M266.043 246.687C262.904 247.57 259.969 248.792 257.239 250.355C254.577 251.917 252.223 253.751 250.175 255.857C248.196 257.894 246.626 260.102 245.466 262.479C244.306 264.857 243.726 267.302 243.726 269.815C243.726 271.309 244.033 272.634 244.647 273.789C245.261 274.875 245.978 275.419 246.797 275.419C247.684 275.419 248.401 275.249 248.947 274.909C249.561 274.57 250.175 274.196 250.789 273.789C251.404 273.381 252.086 273.008 252.837 272.668C253.656 272.328 254.714 272.158 256.01 272.158C257.375 272.158 258.638 272.464 259.798 273.075C261.027 273.619 262.085 274.4 262.972 275.419C263.927 276.438 264.678 277.66 265.224 279.087C265.77 280.513 266.043 282.042 266.043 283.672C266.043 285.438 265.668 287.068 264.917 288.562C264.166 290.057 263.142 291.347 261.846 292.434C260.617 293.521 259.15 294.404 257.444 295.083C255.806 295.694 254.031 296 252.12 296C249.595 296 247.24 295.457 245.056 294.37C242.872 293.215 240.961 291.687 239.323 289.785C237.685 287.815 236.389 285.574 235.433 283.06C234.478 280.479 234 277.728 234 274.808C234 270.189 234.853 265.943 236.559 262.072C238.334 258.2 240.654 254.838 243.521 251.985C246.455 249.064 249.868 246.755 253.758 245.057C257.648 243.291 261.743 242.272 266.043 242V246.687ZM303 246.687C299.929 247.57 297.028 248.792 294.298 250.355C291.568 251.917 289.214 253.751 287.234 255.857C285.255 257.894 283.685 260.102 282.525 262.479C281.365 264.857 280.785 267.302 280.785 269.815C280.785 271.309 281.058 272.634 281.604 273.789C282.218 274.875 282.969 275.419 283.856 275.419C284.743 275.419 285.46 275.249 286.006 274.909C286.62 274.57 287.2 274.196 287.746 273.789C288.361 273.381 289.043 273.008 289.794 272.668C290.613 272.328 291.671 272.158 292.967 272.158C294.332 272.158 295.595 272.464 296.755 273.075C297.984 273.619 299.042 274.4 299.929 275.419C300.884 276.438 301.635 277.66 302.181 279.087C302.727 280.513 303 282.042 303 283.672C303 285.438 302.625 287.068 301.874 288.562C301.191 290.057 300.202 291.347 298.905 292.434C297.677 293.521 296.209 294.404 294.503 295.083C292.797 295.694 290.988 296 289.077 296C286.552 296 284.197 295.457 282.013 294.37C279.829 293.215 277.918 291.687 276.28 289.785C274.642 287.815 273.346 285.574 272.39 283.06C271.435 280.479 270.957 277.728 270.957 274.808C270.957 270.189 271.81 265.943 273.516 262.072C275.291 258.2 277.645 254.838 280.58 251.985C283.515 249.064 286.893 246.755 290.715 245.057C294.605 243.291 298.7 242.272 303 242V246.687Z" fill="white"/>
</svg>
